# xmcd
#
# Track frame offsets:
#	150
#	45010
#	105692
#	150592
#	177052
#
# Disc length: 3233 seconds
#
# Revision: 1
# Processed by: cddbd v1.5.2PL0 Copyright (c) Steve Scherf et al.
# Submitted via: dBpowerAMP V4.0
#
DISCID=2a0c9f05
DTITLE=Borah Bergman and Oliver Lake - A new organization
DYEAR=1999
DGENRE=Jazz
TTITLE0=I kiss your eyes
TTITLE1=A new organization
TTITLE2=I won't wash for three days
TTITLE3=The blue tree
TTITLE4=Forever fervent
EXTD=
EXTT0=
EXTT1=
EXTT2=
EXTT3=
EXTT4=
PLAYORDER=
